<svg width="180.78mm" height="166.25mm" version="1.1" viewBox="0 0 180.78 166.25" xmlns="http://www.w3.org/2000/svg">
<g transform="translate(-14.612 -65.376)">
<path d="m61.189 231.33c-0.09553-0.1615-0.39036-0.29363-0.65516-0.29363-1.3083 0-3.254-2.4546-5.6314-7.1042-0.52068-1.0183-1.1067-2.0497-1.3022-2.292-0.19554-0.24224-0.62812-0.96897-0.96127-1.615-0.33316-0.64598-1.046-1.9673-1.5841-2.9363-0.53807-0.96898-1.0538-1.993-1.146-2.2756-0.09225-0.28262-0.27945-0.51385-0.416-0.51385-0.13655 0-0.24827-0.26427-0.24827-0.58726s-0.103-0.58726-0.2289-0.58726c-0.22507 0-0.70086-0.83385-2.3875-4.1842-0.46747-0.9286-0.95532-1.6884-1.0841-1.6884-0.12878 0-0.23414-0.26427-0.23414-0.58726s-0.12647-0.58726-0.28104-0.58726c-0.15458 0-0.28104-0.2351-0.28104-0.52244s-0.25294-0.7129-0.56209-0.94571c-0.30915-0.2328-0.56209-0.63194-0.56209-0.88698s-0.11455-0.58924-0.25456-0.74266-0.51942-0.77445-0.84313-1.3801-0.84152-1.5636-1.1507-2.1288c-0.30915-0.56524-0.81503-1.4902-1.1242-2.0554-1.3913-2.5439-1.6592-3.027-2.4901-4.4908-0.48532-0.85496-0.8824-1.6374-0.8824-1.7387 0-0.10129-0.17472-0.39278-0.38827-0.64774-0.21355-0.25496-0.81428-1.2967-1.335-2.3151-1.267-2.4781-1.4786-2.8622-1.8334-3.3291-0.1665-0.2191-0.61794-0.99295-1.0032-1.7197-0.38527-0.72673-0.9713-1.8168-1.3023-2.4224-0.331-0.60561-0.86957-1.5966-1.1968-2.2022-0.32725-0.60561-0.81067-1.4314-1.0743-1.8352s-0.68911-1.2114-0.94556-1.7947c-0.25646-0.58336-0.65833-1.2272-0.89304-1.4307-0.23471-0.20352-0.42675-0.60711-0.42675-0.89687s-0.09485-0.57088-0.21078-0.62471c-0.11593-0.0538-0.51522-0.72551-0.88732-1.4926-0.37209-0.76711-0.78312-1.3947-0.9134-1.3947s-0.23686-0.26427-0.23686-0.58726-0.10286-0.58726-0.22859-0.58726c-0.12573 0-0.40334-0.46532-0.61693-1.034-0.21359-0.56873-0.6166-1.2499-0.89559-1.5137-0.27899-0.26379-0.50725-0.7234-0.50725-1.0214s-0.09485-0.54278-0.21078-0.54404c-0.11593-1e-3 -0.35001-0.29856-0.52018-0.66067-0.6877-1.4634-1.6682-3.3098-1.831-3.4478-0.09517-0.0808-0.44115-0.69942-0.76886-1.3748-0.3277-0.6754-0.7241-1.3108-0.88089-1.4121-0.15678-0.10123-0.28506-0.44053-0.28506-0.754 0-0.31346-0.11172-0.56993-0.24827-0.56993-0.13655 0-0.3207-0.23123-0.40922-0.51385-0.08853-0.28261-0.45379-1.0424-0.81169-1.6884-1.2417-2.2411-1.831-5.6685-1.0602-6.1662 0.15457-0.0998 0.28104-0.42284 0.28104-0.71784 0-0.59122 0.33179-1.2999 1.4827-3.1669 0.42112-0.68315 0.76567-1.32 0.76567-1.4152 0-0.0952 0.37941-0.7493 0.84313-1.4535 0.46372-0.70418 0.84313-1.3648 0.84313-1.4682s0.37941-0.76397 0.84314-1.4682c0.46372-0.70418 0.84313-1.4878 0.84313-1.7413s0.10659-0.46095 0.23686-0.46095c0.13027 0 0.53959-0.62763 0.9096-1.3947 0.37001-0.7671 0.73769-1.4608 0.81706-1.5416 0.13456-0.13689 0.5014-0.78729 1.2421-2.2022 0.16908-0.323 0.37066-0.65333 0.44795-0.73408 0.31274-0.32674 0.84313-1.4841 0.84313-1.8398 0-0.20879 0.25294-0.57008 0.56209-0.80288 0.30915-0.2328 0.56209-0.64736 0.56209-0.92124s0.09485-0.54201 0.21078-0.59585c0.26386-0.12252 1.1765-1.6865 1.3851-2.3735 0.08579-0.28262 0.2677-0.51385 0.40424-0.51385 0.13655 0 0.24827-0.24809 0.24827-0.55131s0.19204-0.71782 0.42675-0.92134c0.23471-0.20352 0.63916-0.84733 0.89875-1.4307s0.55499-1.1267 0.65643-1.2075c0.10143-0.0807 0.6139-1.0057 1.1388-2.0554 0.52492-1.0497 1.0203-1.9747 1.1009-2.0554 0.20269-0.20317 3.9287-6.7293 3.9287-6.8812 0-0.0676 0.65363-1.2226 1.4525-2.5668 0.79888-1.3442 1.8606-3.2772 2.3594-4.2954 0.4988-1.0183 1.0855-2.0754 1.3038-2.349 0.2183-0.27367 0.81959-1.3895 1.3362-2.4796 0.51662-1.0901 1.0469-1.982 1.1783-1.982 0.13145 0 0.24181-0.23123 0.24525-0.51385 0.0034-0.28262 0.25356-0.84418 0.55584-1.2479 0.30228-0.40374 0.5524-0.96531 0.55584-1.2479 0.0034-0.28262 0.13272-0.51385 0.2873-0.51385 0.15457 0 0.28104-0.1982 0.28104-0.44044s0.12647-0.44044 0.28104-0.44044 0.28104-0.26427 0.28104-0.58726 0.10536-0.58726 0.23414-0.58726c0.19928 0 1.2124-1.8245 2.4036-4.3287 0.17225-0.36211 0.40804-0.65941 0.52397-0.66067 0.11593-0.0012 0.21078-0.2065 0.21078-0.45608s0.31618-0.78413 0.70261-1.1879c0.38644-0.40374 0.70261-0.86588 0.70261-1.027 0-0.36067 3.2129-3.7912 3.5507-3.7912 0.13401 0 0.76358-0.4955 1.399-1.1011 1.2214-1.164 3.2648-2.4224 3.9335-2.4224 0.21935 0 0.68166-0.15276 1.0274-0.33947 0.3457-0.18671 0.84814-0.45098 1.1166-0.58726s1.1146-0.24778 1.8805-0.24778c0.76585 0 1.4706-0.13213 1.5661-0.29363 0.10236-0.17303 1.7829-0.29363 4.0917-0.29363 2.4247 0 3.918 0.11192 3.918 0.29363 0 0.1615 0.31789 0.29363 0.70642 0.29363s0.95765 0.13213 1.2647 0.29363c0.30705 0.1615 0.8095 0.42576 1.1166 0.58726 0.30705 0.1615 0.84825 0.29363 1.2027 0.29363 0.35441 0 0.82669 0.26427 1.0495 0.58726 0.22282 0.32299 0.60223 0.58726 0.84313 0.58726 0.2409 0 0.62031 0.26427 0.84313 0.58726 0.22282 0.32299 0.57594 0.58726 0.7847 0.58726 0.39189 0 5.117 4.8083 5.1176 5.2078 1.88e-4 0.12342 0.32889 0.62079 0.73045 1.1053 0.40156 0.48449 0.93712 1.3764 1.1901 1.982 0.25301 0.60561 0.55666 1.1011 0.67477 1.1011 0.11811 0 0.21475 0.26427 0.21475 0.58726s0.1051 0.58726 0.23355 0.58726 0.40846 0.36337 0.62222 0.80748c0.21377 0.44411 0.61455 1.1582 0.89062 1.5869 0.27608 0.42867 0.50196 0.99024 0.50196 1.2479 0 0.25769 0.10659 0.46852 0.23686 0.46852s0.53568 0.62763 0.90091 1.3947c0.36522 0.76711 0.87618 1.7251 1.1355 2.1288 0.25928 0.40374 0.73916 1.2296 1.0664 1.8352 0.60554 1.1206 1.3022 2.3972 2.2433 4.1108 0.28825 0.52486 1.3812 2.4738 2.4288 4.331 1.0476 1.8572 2.2844 4.1035 2.7484 4.9917 0.46401 0.88823 0.93843 1.7471 1.0543 1.9086 0.11584 0.1615 0.46515 0.77103 0.77623 1.3545 1.1541 2.1646 1.3245 2.4659 1.4762 2.6095 0.0853 0.0807 0.36757 0.62411 0.62716 1.2075 0.2596 0.58337 0.66404 1.2272 0.89876 1.4307 0.23471 0.20352 0.42675 0.60711 0.42675 0.89687s0.0949 0.57088 0.21078 0.62471c0.11593 0.0538 0.51523 0.72551 0.88732 1.4926 0.3721 0.7671 0.78312 1.3947 0.9134 1.3947 0.13027 0 0.23686 0.26426 0.23686 0.58726 0 0.32299 0.12647 0.58725 0.28104 0.58725 0.15458 0 0.28105 0.14601 0.28105 0.32446s0.37941 0.9118 0.84313 1.6297 0.84313 1.4858 0.84313 1.7065 0.0949 0.4453 0.21079 0.49914c0.26386 0.12252 1.1765 1.6865 1.3851 2.3735 0.0858 0.28262 0.2677 0.51385 0.40425 0.51385 0.13654 0 0.24826 0.26427 0.24826 0.58726s0.1051 0.58726 0.23356 0.58726c0.12845 0 0.40845 0.36337 0.62222 0.80748 0.21377 0.44412 0.61455 1.1582 0.89062 1.5869 0.27608 0.42867 0.50196 0.99024 0.50196 1.2479s0.10659 0.46852 0.23686 0.46852 0.53739 0.62764 0.9047 1.3947c0.36731 0.76711 0.98375 1.9233 1.3698 2.5693 1.1623 1.9446 1.693 2.8913 2.14 3.8172 0.2339 0.48449 0.66855 1.2773 0.96588 1.7618 0.29734 0.48449 0.76098 1.3434 1.0303 1.9086s0.5765 1.0938 0.68256 1.1745c0.10607 0.0807 0.46045 0.64231 0.78752 1.2479s0.84761 1.5636 1.1568 2.1288c0.30915 0.56523 0.81503 1.4902 1.1242 2.0554 0.30915 0.56524 0.81503 1.4902 1.1242 2.0554 0.61992 1.1334 1.4296 2.6244 2.0112 3.7036 0.20775 0.38549 0.44267 0.76696 0.52205 0.84771 0.0794 0.0807 0.44705 0.77444 0.81705 1.5416 0.37001 0.76711 0.77934 1.3947 0.90961 1.3947s0.23686 0.25326 0.23686 0.56279 0.0949 0.60683 0.21078 0.66067c0.11593 0.0538 0.51523 0.72551 0.88732 1.4926 0.3721 0.76711 0.78312 1.3947 0.9134 1.3947 0.13027 0 0.23686 0.25326 0.23686 0.56279 0 0.30954 0.0948 0.60684 0.21078 0.66067 0.11593 0.0538 0.51522 0.72551 0.88732 1.4926 0.37209 0.7671 0.78312 1.3947 0.91339 1.3947 0.13028 0 0.23686 0.25325 0.23686 0.56279 0 0.30953 0.0949 0.60683 0.21079 0.66066 0.11593 0.0538 0.51522 0.72551 0.88732 1.4926 0.37209 0.76711 0.78312 1.3947 0.91339 1.3947s0.23686 0.26427 0.23686 0.58726 0.10127 0.58726 0.22504 0.58726c0.12378 0 0.5348 0.61625 0.9134 1.3695 0.37859 0.75321 0.86367 1.7112 1.078 2.1288 0.44042 0.85843 2.0437 2.9812 3.0292 4.0109 0.36101 0.37718 0.65638 0.84158 0.65638 1.032 0 0.37633 1.3968 1.7349 1.7843 1.7355 0.1312 2e-4 0.59297 0.39676 1.0262 0.88125 0.43318 0.48448 1.053 0.88088 1.3775 0.88088 0.32441 0 0.58985 0.13214 0.58985 0.29363 0 0.1615 0.31618 0.29363 0.70261 0.29363 0.38644 0 0.70261 0.13214 0.70261 0.29363 0 0.1615 0.43518 0.29363 0.96707 0.29363s1.0452 0.13214 1.1408 0.29363c0.0955 0.1615 0.72788 0.29363 1.4052 0.29363s1.3097 0.13213 1.4052 0.29363c0.0955 0.1615 0.79111 0.29363 1.5457 0.29363s1.4502-0.13213 1.5458-0.29363c0.0955-0.1615 0.72788-0.29363 1.4052-0.29363s1.3097-0.13213 1.4052-0.29363c0.0955-0.16149 0.54565-0.29363 1.0002-0.29363s0.82753-0.0991 0.82874-0.22022c2e-3 -0.22385 1.3318-0.9543 1.737-0.9543 0.9507 0 6.9732-6.0681 6.9732-7.026 0-0.14619 0.0949-0.30985 0.21078-0.36368 0.11594-0.0538 0.51523-0.72551 0.88732-1.4926 0.3721-0.7671 0.78313-1.3947 0.9134-1.3947s0.23967-0.23123 0.24311-0.51385c3e-3 -0.28262 0.25356-0.84418 0.55584-1.2479 0.30227-0.40374 0.5524-0.8387 0.55584-0.96658 3e-3 -0.12787 0.25919-0.51615 0.56834-0.86284 0.30915-0.3467 0.56209-0.85869 0.56209-1.1378 0-0.27908 0.1446-0.55778 0.32134-0.61933 1.0906-0.3798-0.38162-1.4052-2.0175-1.4052-0.93022 0-1.6764-0.1307-1.6764-0.29363 0-0.1615-0.37195-0.29363-0.82655-0.29363s-0.90471-0.13214-1.0002-0.29363c-0.0955-0.1615-0.41533-0.29363-0.71065-0.29363s-0.98729-0.26427-1.5377-0.58726c-0.55041-0.32299-1.1866-0.58726-1.4138-0.58726s-0.41302-0.13213-0.41302-0.29363-0.17898-0.29363-0.39774-0.29363-0.75585-0.3964-1.1935-0.88089-0.9388-0.88089-1.1136-0.88089-0.48618-0.21196-0.69197-0.47103c-0.2058-0.25907-0.6662-0.58703-1.0231-0.72881-0.35692-0.14177-0.75863-0.55744-0.89269-0.9237-0.13407-0.36627-0.51121-0.91765-0.8381-1.2253-0.32689-0.30764-0.59434-0.67669-0.59434-0.82009 0-0.14341-0.50588-1.0741-1.1242-2.0683-0.6183-0.99414-1.1242-1.9633-1.1242-2.1536s-0.19204-0.51262-0.42675-0.71614c-0.23472-0.20351-0.63659-0.84733-0.89304-1.4307-0.25646-0.58336-0.68196-1.391-0.94557-1.7947-0.2636-0.40374-0.73513-1.2115-1.0478-1.795-1.1962-2.232-1.328-2.4668-1.4646-2.6095-0.0773-0.0807-0.403-0.67535-0.7238-1.3213-0.75422-1.5188-1.3478-2.6048-1.5246-2.7895-0.0773-0.0808-0.40299-0.67535-0.72379-1.3213-0.76605-1.5426-1.3496-2.6076-1.5284-2.7895-0.0794-0.0807-0.44705-0.77445-0.81706-1.5416-0.37-0.76711-0.77933-1.3947-0.9096-1.3947s-0.23686-0.25326-0.23686-0.5628c0-0.30953-0.0949-0.60683-0.21078-0.66066-0.11593-0.0538-0.51523-0.72551-0.88732-1.4926-0.3721-0.7671-0.78312-1.3947-0.9134-1.3947-0.13027 0-0.23686-0.26426-0.23686-0.58726 0-0.32299-0.10286-0.58725-0.22858-0.58725-0.12573 0-0.40334-0.46533-0.61693-1.034s-0.6166-1.2499-0.89559-1.5136c-0.27899-0.26379-0.50725-0.71561-0.50725-1.004s-0.1049-0.59215-0.23311-0.67494c-0.1282-0.0828-1.1002-1.7422-2.16-3.6877-1.0598-1.9454-2.0299-3.5372-2.1558-3.5372s-0.22892-0.26427-0.22892-0.58726-0.0949-0.58932-0.21079-0.59183c-0.11593-3e-3 -0.52022-0.66317-0.89844-1.4681-0.3782-0.80498-0.78923-1.4636-0.91339-1.4636s-0.22574-0.26426-0.22574-0.58725c0-0.323-0.10158-0.58726-0.22574-0.58726s-0.53519-0.65861-0.9134-1.4636c-0.37821-0.80497-0.7825-1.4656-0.89844-1.4681-0.11593-3e-3 -0.21078-0.26883-0.21078-0.59183 0-0.32299-0.10658-0.58726-0.23686-0.58726-0.13027 0-0.5413-0.62763-0.91339-1.3947-0.3721-0.7671-0.77139-1.4388-0.88732-1.4926-0.11593-0.0538-0.21079-0.33065-0.21079-0.61516 0-0.2845-0.22826-0.73311-0.50725-0.99689-0.27899-0.26379-0.682-0.94494-0.89559-1.5137s-0.4912-1.034-0.61693-1.034c-0.12572 0-0.22858-0.26427-0.22858-0.58726s-0.10659-0.58726-0.23686-0.58726c-0.13028 0-0.53568-0.62763-0.90091-1.3947-0.36522-0.7671-0.87618-1.7251-1.1355-2.1288-0.25927-0.40374-0.73916-1.2296-1.0664-1.8352-0.32724-0.60561-0.84793-1.5636-1.1571-2.1288-0.30915-0.56524-0.81503-1.4902-1.1242-2.0554-0.30915-0.56524-0.81503-1.4902-1.1242-2.0554s-0.81503-1.4902-1.1242-2.0554-0.80823-1.4816-1.1091-2.0363c-1.0488-1.9338-2.0681-3.5434-2.3055-3.6406-0.13147-0.05383-0.23904-0.34012-0.23904-0.6362 0-0.29608-0.0948-0.58236-0.21078-0.6362-0.11593-0.05383-0.64026-0.95674-1.1652-2.0065-0.52491-1.0497-1.0325-1.9747-1.128-2.0554-0.0955-0.08075-0.47631-0.77445-0.84632-1.5416s-0.77933-1.3947-0.9096-1.3947c-0.13028 0-0.23686-0.25326-0.23686-0.56279 0-0.30953-0.0949-0.60683-0.21079-0.66067-0.11593-0.05383-0.51522-0.72551-0.88732-1.4926-0.37209-0.76711-0.78312-1.3947-0.91339-1.3947s-0.23686-0.26427-0.23686-0.58726c0-0.32299-0.0966-0.58726-0.21475-0.58726-0.11811 0-0.43045-0.4955-0.6941-1.1011-0.26364-0.60561-0.7045-1.4824-0.97969-1.9483-0.37451-0.63413-0.41199-0.88029-0.14903-0.97876 0.19321-0.07236 0.3513-0.30334 0.3513-0.51329 0-0.58887 0.96258-0.7355 4.8568-0.73984 2.9313-0.0033 3.6219-0.08504 3.7539-0.44445 0.23374-0.63639 28.343-0.6702 28.576-0.03438 0.082 0.22333 0.83551 0.63162 1.6744 0.9073 1.5478 0.50863 3.0143 1.5649 3.0143 2.1709 0 0.18308 0.12647 0.33287 0.28105 0.33287 0.15457 0 0.28104 0.1982 0.28104 0.44044s0.12647 0.44044 0.28105 0.44044c0.15457 0 0.28104 0.1982 0.28104 0.44044 0 0.24224 0.12647 0.44044 0.28105 0.44044 0.15457 0 0.28104 0.23935 0.28104 0.53189 0 0.29254 0.25294 0.81555 0.56209 1.1622 0.30915 0.34669 0.56209 0.83407 0.56209 1.0831 0 0.249 0.10287 0.45272 0.22859 0.45272s0.40334 0.46532 0.61692 1.034c0.21359 0.56872 0.61661 1.2499 0.8956 1.5137 0.27898 0.26379 0.50725 0.66286 0.50725 0.88683 0 0.22397 0.25294 0.69087 0.56209 1.0376 0.30915 0.34669 0.56209 0.84479 0.56209 1.1069s0.25294 0.76018 0.56209 1.1069c0.30915 0.34669 0.56209 0.83407 0.56209 1.0831 0 0.24899 0.12647 0.45272 0.28104 0.45272 0.15458 0 0.28105 0.13476 0.28105 0.29946 0 0.16471 0.34455 0.8584 0.76566 1.5416 0.42112 0.68315 0.90718 1.5064 1.0801 1.8294 0.17295 0.32299 0.58722 1.0828 0.9206 1.6884 1.0296 1.8705 1.706 3.1112 2.3209 4.2576 0.32483 0.60561 0.74132 1.2993 0.92552 1.5416s0.50891 0.80381 0.72158 1.2479c0.21267 0.44412 0.49177 0.80748 0.62023 0.80748 0.12845 0 0.23355 0.26427 0.23355 0.58726s0.12647 0.58726 0.28105 0.58726c0.15457 0 0.28104 0.26427 0.28104 0.58726 0 0.32299 0.12647 0.58726 0.28105 0.58726 0.15457 0 0.28104 0.2351 0.28104 0.52244s0.25294 0.71291 0.56209 0.94571 0.56209 0.64736 0.56209 0.92124 0.0949 0.54201 0.21078 0.59584c0.11593 0.0538 0.51523 0.72551 0.88732 1.4926 0.3721 0.76711 0.78313 1.3947 0.9134 1.3947s0.23686 0.26427 0.23686 0.58726 0.12647 0.58726 0.28104 0.58726c0.15458 0 0.28105 0.26426 0.28105 0.58726 0 0.32299 0.12647 0.58726 0.28104 0.58726 0.15458 0 0.28105 0.17328 0.28105 0.38507 0 0.2118 0.25294 0.66874 0.56209 1.0154s0.56209 0.83407 0.56209 1.0831c0 0.24899 0.12647 0.45272 0.28104 0.45272s0.28104 0.1982 0.28104 0.44044c0 0.24225 0.12647 0.44045 0.28105 0.44045 0.15457 0 0.28104 0.25325 0.28104 0.56279 0 0.30953 0.0949 0.60683 0.21079 0.66067 0.11593 0.0538 0.51522 0.7255 0.88732 1.4926 0.37209 0.76711 0.75952 1.3947 0.86094 1.3947s0.35808 0.46247 0.57036 1.0277c0.21227 0.56524 0.48882 1.0277 0.61454 1.0277 0.12573 0 0.22859 0.24808 0.22859 0.5513s0.19204 0.71782 0.42675 0.92134c0.23472 0.20352 0.63839 0.84733 0.89704 1.4307 0.25866 0.58337 0.79059 1.5892 1.1821 2.2352 0.76674 1.2652 1.2084 2.0605 2.0385 3.6704 0.29143 0.56524 0.84478 1.5562 1.2297 2.2022 0.38487 0.64599 0.82186 1.4388 0.97109 1.7618s0.58687 1.1158 0.97254 1.7618c0.38567 0.64598 1.0243 1.7691 1.4192 2.4958 2.1684 3.9907 2.4911 4.5638 2.6459 4.6981 0.0931 0.0807 0.47202 0.77445 0.84203 1.5416 0.37001 0.76711 0.77933 1.3947 0.9096 1.3947 0.13028 0 0.23686 0.25326 0.23686 0.56279 0 0.30954 0.0949 0.60683 0.21079 0.66067 0.11593 0.0538 0.51522 0.72551 0.88732 1.4926 0.37209 0.76711 0.78312 1.3947 0.91339 1.3947s0.23686 0.32254 0.23686 0.71675 0.12647 0.79841 0.28104 0.89822c0.15458 0.0998 0.28105 1.1647 0.28105 2.3664 0 1.2608-0.11886 2.1849-0.28105 2.1849-0.15457 0-0.28104 0.19418-0.28104 0.43152 0 0.45853-0.84225 2.1394-1.7192 3.431-0.29106 0.42867-0.52919 0.89926-0.52919 1.0458s-0.22132 0.52249-0.49183 0.83556c-0.2705 0.31307-0.67766 0.96562-0.9048 1.4501-0.22714 0.48449-0.76463 1.4332-1.1944 2.1083-0.4298 0.67508-0.78146 1.2858-0.78146 1.3572 0 0.0714-0.66973 1.3028-1.4883 2.7366-0.81855 1.4337-1.7015 3.0841-1.9621 3.6674-0.26062 0.58336-0.6659 1.2272-0.90061 1.4307-0.23472 0.20352-0.42676 0.50441-0.42676 0.66864 0 0.16424-0.39853 0.97389-0.88562 1.7992-0.87517 1.4829-1.3652 2.3623-2.5134 4.5103-0.32371 0.60561-0.70312 1.2266-0.84313 1.3801s-0.25456 0.51678-0.25456 0.80748c0 0.29069-0.10659 0.52853-0.23686 0.52853s-0.5413 0.62763-0.91339 1.3947c-0.3721 0.76711-0.77139 1.4388-0.88732 1.4926-0.11594 0.0538-0.21079 0.35113-0.21079 0.66066 0 0.30954-0.10658 0.56279-0.23686 0.56279-0.13027 0-0.5413 0.62764-0.91339 1.3947-0.3721 0.76711-0.77139 1.4388-0.88732 1.4926-0.11593 0.0538-0.21079 0.35113-0.21079 0.66067 0 0.30953-0.10658 0.56279-0.23685 0.56279-0.13028 0-0.5396 0.62763-0.90961 1.3947-0.37001 0.7671-0.73768 1.4608-0.81706 1.5416-0.0794 0.0807-0.31429 0.46222-0.52205 0.84771-0.58157 1.0791-1.3912 2.5701-2.0111 3.7036-0.30915 0.56523-0.81503 1.4902-1.1242 2.0554-0.30915 0.56524-0.81503 1.4902-1.1242 2.0554-1.4056 2.5699-1.66 3.0236-2.4703 4.4044-0.47379 0.80748-1.265 2.261-1.7583 3.2299-0.49327 0.96897-1.0716 1.9704-1.2851 2.2253-0.21356 0.25496-0.38828 0.60215-0.38828 0.77153 0 0.16937-0.19204 0.47447-0.42675 0.67799s-0.6373 0.84733-0.89464 1.4307c-0.25734 0.58337-0.82412 1.613-1.2595 2.2881-0.4354 0.67508-0.79163 1.342-0.79163 1.482s-0.50588 0.77064-1.1242 1.4014c-0.6183 0.63078-1.1242 1.2978-1.1242 1.4822s-0.25294 0.5745-0.56209 0.8668c-0.30915 0.29231-0.56209 0.65256-0.56209 0.80056 0 0.35285-0.72905 1.108-1.0697 1.108-0.14669 0-0.44013 0.21832-0.65209 0.48516-0.87825 1.1056-3.6434 2.9853-4.7246 3.2116-0.22212 0.0465-0.91771 0.34839-1.5457 0.67088-0.62804 0.32248-1.6478 0.66441-2.2661 0.75985-0.6183 0.0954-1.8198 0.31211-2.6699 0.48151-2.4756 0.49326-3.0965 0.45705-8.5016-0.4958-0.57965-0.10218-1.0539-0.30346-1.0539-0.44729s-0.17223-0.2615-0.38274-0.2615c-1.5844 0-7.484-4.238-9.1548-6.5765-0.53109-0.74333-1.0717-1.3515-1.2014-1.3515-0.12967 0-0.34861-0.31008-0.48652-0.68908-0.13792-0.37899-0.74373-1.5352-1.3462-2.5693-0.60252-1.0341-1.183-2.0784-1.2899-2.3206-0.10696-0.24224-0.51401-0.96898-0.90458-1.615-0.39056-0.64599-0.86544-1.5048-1.0553-1.9086-0.18985-0.40374-0.66275-1.2626-1.0509-1.9086-0.38813-0.64599-0.89253-1.5709-1.1209-2.0554-0.22835-0.48449-0.63651-1.137-0.90701-1.4501-0.27051-0.31307-0.49183-0.78365-0.49183-1.0457s-0.25294-0.76018-0.56209-1.1069c-0.30915-0.34669-0.56209-0.80915-0.56209-1.0277 0-0.21854-0.22148-0.6535-0.49219-0.96657-0.2707-0.31307-0.80747-1.2299-1.1928-2.0374-0.38535-0.80748-0.84661-1.6293-1.025-1.8263-0.17841-0.19701-0.79494-1.3532-1.3701-2.5693-0.57513-1.2161-1.1571-2.2111-1.2932-2.2111s-0.24756-0.26427-0.24756-0.58726-0.10286-0.58726-0.22858-0.58726c-0.12573 0-0.40334-0.46532-0.61693-1.034s-0.6166-1.2499-0.89559-1.5137c-0.27899-0.26378-0.50725-0.7234-0.50725-1.0214s-0.10659-0.54175-0.23686-0.54175-0.5396-0.62763-0.90961-1.3947-0.73768-1.4608-0.81705-1.5416c-0.17632-0.17938-0.77965-1.2667-1.4663-2.6427-0.28207-0.56524-0.63452-1.2259-0.78322-1.4682-0.75644-1.2324-2.8131-5.0668-2.8131-5.2448 0-0.1125-0.25294-0.39501-0.56209-0.62782-0.30915-0.2328-0.56209-0.70395-0.56209-1.047s-0.25294-0.8629-0.56209-1.1552c-0.30915-0.2923-0.56209-0.77525-0.56209-1.0732s-0.11113-0.54175-0.24695-0.54175c-0.13582 0-0.40411-0.3964-0.59619-0.88089s-0.46036-0.88089-0.59619-0.88089c-0.13582 0-0.24695-0.26426-0.24695-0.58725 0-0.323-0.12647-0.58726-0.28104-0.58726-0.15457 0-0.28104-0.2351-0.28104-0.52244s-0.25294-0.71291-0.56209-0.94571-0.56209-0.65837-0.56209-0.94571-0.09664-0.52244-0.21475-0.52244c-0.11811 0-0.43493-0.4955-0.70405-1.1011-0.53199-1.1972-1.2447-2.5294-1.9833-3.707-0.25875-0.41258-0.47046-0.92383-0.47046-1.1361 0-0.21227-0.25294-0.57642-0.56209-0.80923-0.30915-0.2328-0.56209-0.59409-0.56209-0.80288 0-0.35567-0.5304-1.513-0.84313-1.8398-0.07729-0.0807-0.3105-0.46222-0.51826-0.84771-0.58157-1.0791-1.3912-2.5701-2.0111-3.7036-0.30915-0.56523-0.82984-1.5232-1.1571-2.1288-0.32725-0.60561-0.81067-1.4314-1.0743-1.8352-0.2636-0.40374-0.68911-1.2114-0.94556-1.7947-0.25646-0.58336-0.65833-1.2272-0.89304-1.4307-0.23472-0.20352-0.42957-0.58509-0.433-0.84793-0.0034-0.26285-0.25356-0.80823-0.55584-1.212-0.30228-0.40374-0.5524-0.82905-0.55584-0.94514-0.0034-0.11608-0.57537-1.1302-1.271-2.2536-0.69558-1.1234-1.2647-2.1684-1.2647-2.3222s-0.19124-0.44549-0.42499-0.64817-0.80208-1.1768-1.263-2.1648c-0.85438-1.8314-1.7099-3.4409-1.9694-3.7048-0.07937-0.0808-0.44705-0.77445-0.81706-1.5416-0.37001-0.7671-0.77933-1.3947-0.9096-1.3947s-0.23686-0.25325-0.23686-0.56279c0-0.30953-0.09485-0.60683-0.21078-0.66066-0.11593-0.0538-0.51523-0.72551-0.88732-1.4926-0.3721-0.76711-0.78312-1.3947-0.9134-1.3947-0.13027 0-0.23686-0.20373-0.23686-0.45272 0-0.249-0.25294-0.73638-0.56209-1.0831-0.30915-0.3467-0.56264-0.83667-0.56331-1.0888-5.62e-4 -0.25217-0.75949-1.3082-1.6863-2.3466s-1.685-2.0059-1.685-2.1498c0-0.31684-0.37955-0.70178-1.7322-1.7568-0.56627-0.44167-1.1986-0.97466-1.4052-1.1844-0.58291-0.59183-3.357-1.8955-4.4508-2.0916-0.54101-0.097-1.4895-0.25306-2.1078-0.34679-0.6183-0.0937-1.3972-0.30828-1.7308-0.47678s-1.0925-0.2209-1.6863-0.11644c-4.6724 0.82199-5.4067 1.0232-7.1885 1.9702-0.26841 0.14265-0.64988 0.25937-0.84772 0.25937-0.68846 0-7.7982 7.9112-7.7982 8.6773 0 0.10219-0.25294 0.52176-0.56209 0.93238-0.30915 0.41062-0.56209 0.97685-0.56209 1.2583 0 0.28144-0.18171 0.66927-0.4038 0.86184-2.2083 1.9148-2.5076 5.1661-0.49699 5.3991 2.7984 0.32431 3.2481 0.45288 5.8191 1.6634 0.77287 0.3639 1.7214 0.80807 2.1078 0.98703 0.38644 0.17896 1.3828 0.85592 2.2142 1.5044 0.83136 0.64843 1.938 1.4782 2.4591 1.8439 0.54419 0.38188 0.94757 0.91312 0.94757 1.2479 0 0.32064 0.12647 0.58298 0.28104 0.58298 0.15457 0 0.28104 0.1393 0.28104 0.30956 0 0.17025 0.37883 0.73182 0.84183 1.2479 0.46301 0.51611 0.84242 1.0786 0.84313 1.25 8.44e-4 0.17142 0.22624 0.56782 0.50116 0.88089 0.27492 0.31307 0.85214 1.3264 1.2827 2.2519 0.43056 0.92547 0.88909 1.7513 1.0189 1.8351 0.12986 0.0838 0.70863 1.1104 1.2862 2.2813 0.57753 1.1709 1.1337 2.1949 1.236 2.2757 0.10228 0.0807 0.39259 0.61138 0.64512 1.1792s0.75795 1.4927 1.1232 2.0554c0.3652 0.56267 0.75677 1.2212 0.87014 1.4635 0.11337 0.24225 0.63752 1.1672 1.1648 2.0554 0.52724 0.88823 1.359 2.4418 1.8483 3.4525 0.4893 1.0106 0.99194 1.9036 1.117 1.9843 0.12503 0.0807 0.69552 1.1368 1.2677 2.3467 0.57223 1.21 1.1518 2.1999 1.288 2.1999s0.24756 0.26427 0.24756 0.58726 0.12647 0.58726 0.28104 0.58726 0.28104 0.14136 0.28104 0.31413 0.37941 0.89028 0.84313 1.5945 0.84313 1.4878 0.84313 1.7413c0 0.25351 0.12647 0.46094 0.28104 0.46094 0.15457 0 0.28104 0.17329 0.28104 0.38508s0.25294 0.66873 0.56209 1.0154c0.30915 0.3467 0.56209 0.83408 0.56209 1.0831 0 0.249 0.12647 0.45273 0.28104 0.45273s0.28104 0.26426 0.28104 0.58725c0 0.323 0.1051 0.58726 0.23355 0.58726 0.12846 0 0.40846 0.36337 0.62222 0.80748 0.21377 0.44412 0.61455 1.1582 0.89062 1.5869s0.50196 0.99023 0.50196 1.2479 0.10755 0.46853 0.239 0.46853c0.13145 0 0.66639 0.89189 1.1888 1.982 0.52238 1.0901 1.0325 2.0481 1.1337 2.1288 0.10113 0.0807 0.45148 0.64231 0.77854 1.2479 0.74954 1.3879 1.5466 2.8455 2.3284 4.2576 0.33525 0.60561 0.84514 1.5636 1.1331 2.1288 0.28795 0.56524 0.77331 1.4241 1.0786 1.9086 0.30526 0.48448 0.80565 1.425 1.112 2.09 0.30634 0.66502 0.74815 1.3749 0.98181 1.5775 0.23366 0.2026 0.42484 0.47851 0.42484 0.61312 0 0.13462 0.39708 0.94427 0.8824 1.7992 0.83091 1.4638 1.0988 1.9469 2.4901 4.4908 0.30915 0.56523 0.81503 1.4902 1.1242 2.0554 0.30915 0.56524 0.81503 1.4902 1.1242 2.0554 0.61991 1.1334 1.4296 2.6244 2.0111 3.7035 0.20775 0.3855 0.44268 0.76697 0.52205 0.84772 0.07937 0.0807 0.44705 0.77444 0.81706 1.5416 0.37001 0.76711 0.77933 1.3947 0.9096 1.3947 0.13027 0 0.23686 0.23784 0.23686 0.52853 0 0.2907 0.11606 0.65406 0.2579 0.80748 0.14185 0.15343 0.66854 1.0718 1.1704 2.0407s0.98828 1.8278 1.0809 1.9086c0.09258 0.0807 0.47105 0.77445 0.84106 1.5416 0.37001 0.76711 0.77933 1.3947 0.9096 1.3947 0.13027 0 0.23686 0.26427 0.23686 0.58726 0 0.323 0.09663 0.58726 0.21475 0.58726 0.11811 0 0.43292 0.4955 0.69958 1.1011s0.79616 1.6296 1.1767 2.2756c2.175 3.6924 2.4249 4.3235 2.0569 5.1922l-0.35046 0.82719h-19.026c-12.381 0-19.087-0.10256-19.2-0.29363z" fill="#fff" stroke-width=".28727"/>
</g>
</svg>
